<svg xmlns="http://www.w3.org/2000/svg" width="24" height="24" viewBox="0 0 24 24" fill="none" stroke="currentColor" stroke-width="2" stroke-linecap="round" stroke-linejoin="round" class="lucide lucide-trophy w-8 h-8 sm:w-10 sm:h-10 md:w-12 md:h-12" aria-hidden="true" style="color: rgb(11, 180, 170);"><path d="M10 14.66v1.626a2 2 0 0 1-.976 1.696A5 5 0 0 0 7 21.978"></path><path d="M14 14.66v1.626a2 2 0 0 0 .976 1.696A5 5 0 0 1 17 21.978"></path><path d="M18 9h1.5a1 1 0 0 0 0-5H18"></path><path d="M4 22h16"></path><path d="M6 9a6 6 0 0 0 12 0V3a1 1 0 0 0-1-1H7a1 1 0 0 0-1 1z"></path><path d="M6 9H4.5a1 1 0 0 1 0-5H6"></path></svg>